<?xml version="1.0" encoding="UTF-8"?>
<svg width="200px" height="200px" version="1.1" viewBox="0 0 700 700" xmlns="http://www.w3.org/2000/svg" xmlns:xlink="http://www.w3.org/1999/xlink">
 <g>
  <path style="fill: #404040" d="m376.25 288.75c0-24.125-19.625-43.75-43.75-43.75s-43.75 19.625-43.75 43.75 19.625 43.75 43.75 43.75 43.75-19.625 43.75-43.75zm-70 0c0-14.473 11.777-26.25 26.25-26.25s26.25 11.777 26.25 26.25-11.777 26.25-26.25 26.25-26.25-11.777-26.25-26.25z"/>
  <path style="fill: #404040" d="m315 385h35c4.8398 0 8.75-3.9219 8.75-8.75l0.375-13.457c2.3633-0.83984 4.6445-1.793 7.2617-3.0352l9.4219 9.4219c3.2812 3.2812 9.0898 3.2812 12.371 0l24.746-24.754c3.4219-3.4219 3.4219-8.9531 0-12.371l-9.25-9.7812c1.0586-2.25 2.0117-4.5586 2.9766-7.2812h13.348c4.8398 0 8.75-3.9219 8.75-8.75v-35c0-4.8281-3.9102-8.75-8.75-8.75l-13.449-0.35938c-0.84766-2.3633-1.8008-4.6641-3.0469-7.2812l9.4219-9.4219c3.4219-3.4219 3.4219-8.9531 0-12.371l-24.746-24.754c-1.6445-1.6445-3.8594-2.5625-6.1875-2.5625-2.3281 0-4.5508 0.91797-6.1875 2.5625l-9.793 9.2383c-2.25-1.0508-4.543-2.0039-7.2695-2.9648l0.007812-13.328c0-4.8281-3.9102-8.75-8.75-8.75h-35c-4.8398 0-8.75 3.9219-8.75 8.75l-0.375 13.457c-2.3633 0.83984-4.6445 1.793-7.2617 3.0352l-9.4219-9.4219c-3.2812-3.2812-9.0898-3.2812-12.371 0l-24.746 24.754c-3.4219 3.4219-3.4219 8.9531 0 12.371l9.25 9.7812c-1.0586 2.25-2.0117 4.5586-2.9766 7.2812h-13.348c-4.8398 0-8.75 3.9219-8.75 8.75v35c0 4.8281 3.9102 8.75 8.75 8.75l13.449 0.35938c0.84766 2.3633 1.8008 4.6641 3.0469 7.2812l-9.4219 9.4219c-3.4219 3.4219-3.4219 8.9531 0 12.371l24.746 24.754c1.6445 1.6445 3.8594 2.5625 6.1875 2.5625 2.3281 0 4.5508-0.91797 6.1875-2.5625l9.793-9.2383c2.25 1.0508 4.543 2.0039 7.2695 2.9648l-0.007812 13.328c0 4.8281 3.9102 8.75 8.75 8.75zm-28.762-37.617-3.2383 3.2383-12.371-12.383 3.2383-3.2383c5.2773-5.2656 6.5625-13.195 3.2734-20.203-0.82422-1.7344-1.5586-3.5-2.2031-5.3477-2.6211-7.25-9.1289-11.949-16.602-11.949h-4.5859v-17.5h4.5859c7.4727 0 13.984-4.6992 16.598-11.988 0.64062-1.8203 1.375-3.5859 2.2031-5.3359 3.2812-6.9922 1.9961-14.918-3.2812-20.188l-3.2383-3.2383 12.371-12.383 3.2383 3.2383c5.1875 5.1992 13.309 6.5195 20.195 3.2812 1.7344-0.82422 3.5273-1.5664 5.3555-2.2148 7.1602-2.5703 11.973-9.2266 11.973-16.586v-4.5859h17.5v4.5859c0 7.3594 4.8125 14.027 11.961 16.59 1.8281 0.65625 3.6211 1.3984 5.3477 2.2148 6.8867 3.2461 15.008 1.9414 20.203-3.2734l3.2383-3.2383 12.371 12.383-3.2383 3.2383c-5.2773 5.2656-6.5625 13.195-3.2734 20.203 0.82422 1.7344 1.5586 3.5 2.2031 5.3477 2.6211 7.25 9.1289 11.949 16.602 11.949h4.5859v17.5h-4.5859c-7.4727 0-13.984 4.6992-16.598 11.988-0.64062 1.8203-1.375 3.5859-2.2031 5.3359-3.2812 6.9922-1.9961 14.918 3.2812 20.188l3.2383 3.2383-12.371 12.383-3.2383-3.2383c-5.207-5.2148-13.309-6.5352-20.195-3.2812-1.7344 0.82422-3.5273 1.5664-5.3555 2.2148-7.1602 2.5703-11.973 9.2266-11.973 16.586v4.5859h-17.5v-4.5859c0-7.3594-4.8125-14.027-11.961-16.59-1.8281-0.65625-3.6211-1.3984-5.3477-2.2148-6.8867-3.2344-14.988-1.9414-20.203 3.2734z"/>
  <path style="fill: #404040" d="m439.5 371.36c2.9648-6.0195 5.4766-12.336 7.4727-18.77l-16.711-5.1992c-1.7227 5.5664-3.9023 11.023-6.4648 16.23z"/>
  <path style="fill: #404040" d="m335.7 130.57c-46.742 0-90.676 18.207-123.73 51.266-61.738 61.766-61.738 162.26 0 224.04 27.082 27.09 63.086 42.008 101.39 42.008 38.297 0 74.305-14.918 101.39-42.008l-12.371-12.371c-23.781 23.781-55.387 36.883-89.016 36.883-33.625 0-65.23-13.098-89.016-36.883-54.914-54.941-54.914-144.34 0-199.28 29.742-29.758 69.281-46.141 111.35-46.141 42.062 0 81.594 16.391 111.34 46.141 68.602 68.625 68.602 180.3 0 248.93-46.645 46.672-112.39 66.473-176.88 53.777l3.668-13.352c0.86719-3.1328-0.078125-6.4844-2.4492-8.707-2.3633-2.2227-5.7656-2.9492-8.8359-1.8906l-37.895 13.082c-2.6758 0.91797-4.7422 3.0898-5.5391 5.8008-0.80469 2.7109-0.23438 5.6523 1.5156 7.875l25.41 32.359c1.6719 2.1367 4.2188 3.3438 6.8789 3.3438 0.57031 0 1.1562-0.050782 1.7227-0.17578 3.2383-0.65625 5.8359-3.0781 6.7109-6.2578l4.1641-15.145c14.352 2.9141 28.754 4.4258 43.031 4.4258 56.051 0 110.15-22.023 150.88-62.773 75.426-75.453 75.426-198.22 0-273.67-33.039-33.059-76.98-51.27-123.71-51.27zm-86.625 377.07-7.1055-9.0391 10.586-3.6484z"/>
  <path style="fill: #404040" d="m147.07 417.29c-64.129-87.77-54.82-207.37 22.145-284.37 23.363-23.363 50.523-41.316 80.746-53.594l5.7148 16.965c1.0508 3.1406 3.7969 5.418 7.0781 5.8711 0.41016 0.0625 0.8125 0.085938 1.2148 0.085938 2.8516 0 5.5664-1.3984 7.2109-3.7969l24.789-36.051c1.5586-2.2656 1.9609-5.1367 1.0781-7.7539-0.875-2.6094-2.9297-4.6562-5.5469-5.5117l-41.555-13.699c-3.1406-1.0312-6.625-0.21094-8.9414 2.1445-2.3438 2.3555-3.1406 5.8281-2.082 8.9609l5.4531 16.18c-32.797 13.168-62.238 32.543-87.527 57.828-83.113 83.141-93.164 212.28-23.918 307.06zm127.86-355.18-8.2617 12.016-5.5898-16.582z"/>
  <path style="fill: #404040" d="m404.57 51.25-4.1562 17c43.32 10.578 82.977 32.945 114.7 64.664 74.812 74.855 99.285 185.97 63.707 285.19l-15.582-6.2305c-3.0195-1.1992-6.4414-0.64062-8.9258 1.4609-2.4688 2.1094-3.5703 5.4062-2.8594 8.5742l8.75 39.129c0.61328 2.7656 2.5273 5.0586 5.1445 6.1523 1.0859 0.46484 2.2383 0.69141 3.3945 0.69141 1.6094 0 3.1953-0.4375 4.5938-1.3047l35-21.629c2.8086-1.7344 4.4102-4.9102 4.1211-8.1992-0.28125-3.2891-2.3984-6.1406-5.4688-7.3672l-11.918-4.7695c38.184-105.72 12.18-224.26-67.586-304.06-33.977-33.992-76.473-57.949-122.91-69.297zm170.03 393.98-2.4414-10.938 12.223 4.8906z"/>
  <path style="fill: #404040" d="m350 87.5c19.301 0 35-15.699 35-35s-15.699-35-35-35-35 15.699-35 35 15.699 35 35 35zm0-52.5c9.6523 0 17.5 7.8477 17.5 17.5s-7.8477 17.5-17.5 17.5-17.5-7.8477-17.5-17.5 7.8477-17.5 17.5-17.5z"/>
  <path style="fill: #404040" d="m533.75 542.5c19.301 0 35-15.699 35-35s-15.699-35-35-35-35 15.699-35 35 15.699 35 35 35zm0-52.5c9.6523 0 17.5 7.8477 17.5 17.5s-7.8477 17.5-17.5 17.5-17.5-7.8477-17.5-17.5 7.8477-17.5 17.5-17.5z"/>
  <path style="fill: #404040" d="m140 463.75c0 19.301 15.699 35 35 35s35-15.699 35-35-15.699-35-35-35-35 15.699-35 35zm52.5 0c0 9.6523-7.8477 17.5-17.5 17.5s-17.5-7.8477-17.5-17.5 7.8477-17.5 17.5-17.5 17.5 7.8477 17.5 17.5z"/>
 </g>
</svg>
